<?xml version="1.0" encoding="utf-8"?>
<!-- Generator: Adobe Illustrator 26.0.2, SVG Export Plug-In . SVG Version: 6.00 Build 0)  -->
<svg version="1.1" id="Camada_1" xmlns="http://www.w3.org/2000/svg" xmlns:xlink="http://www.w3.org/1999/xlink" x="0px" y="0px"
	 viewBox="0 0 400 200" style="enable-background:new 0 0 400 200;" xml:space="preserve">
<style type="text/css">
	.st0{fill:#8A7257;}
	.st1{fill:#CABA98;}
	.st2{font-family:'Aurora';}
	.st3{font-size:28.6474px;}
	.st4{font-family:'Vogue-Regular';}
	.st5{font-size:112.799px;}
</style>
<g id="Camada_1_00000114059153561762647770000005367421554824745102_">
	<text transform="matrix(1 0 0 1 4179.8955 4152.3521)" class="st0" style="font-family:'adelia'; font-size:20.3472px;">Artesanato em</text>
	<text transform="matrix(1 0 0 1 4181.2729 4216.2988)" class="st1 st4" style="font-size:75.1289px;">Foco</text>
	<g>
		<path class="st0" d="M4120.7,4226c-3.9,0-7.8-0.1-11.7,0c-1.5,0-2-0.5-1.9-1.9c0.1-1.8,0-3.5,0-5.3c0-1.2-0.4-1.7-1.6-1.7
			c-1.9,0.1-3.9,0-5.9,0c-1.1,0-1.5-0.4-1.4-1.5c0.1-1.8-0.1-3.7,0-5.5c0.1-1.6-0.5-2-2-1.9c-1.7,0.1-3.4-0.1-5.1,0.1
			c-1.4,0.1-1.7-0.5-1.7-1.7c0.1-1.8,0-3.7,0-5.5c0.1-1.3-0.4-1.6-1.6-1.6c-1.8,0.1-3.7-0.1-5.5,0c-1.4,0.1-1.8-0.5-1.8-1.8
			c0.1-1.7-0.1-3.4,0-5.1c0.1-1.5-0.6-1.9-2-1.9c-1.8,0.1-3.7,0-5.5,0c-1,0-1.5-0.3-1.4-1.4c0.1-1.9,0-3.9,0-5.9
			c0.1-1.3-0.5-1.6-1.7-1.6c-1.9,0.1-3.8,0-5.7,0c-1.1,0-1.6-0.3-1.6-1.5c0.1-2.8,0-5.6,0-8.3c0-1,0.4-1.4,1.3-1.4c2,0,4,0,6,0
			c1.2,0,1.6-0.4,1.5-1.5c-0.1-1.9,0.1-3.8,0-5.7c-0.1-1.4,0.5-1.7,1.7-1.7c1.8,0.1,3.6,0,5.3,0c1.3,0.1,1.9-0.3,1.8-1.8
			c-0.1-1.9,0-3.8,0-5.7c0-1.1,0.4-1.5,1.4-1.4c2,0.1,4,0,6,0c1.1,0,1.5-0.4,1.4-1.4c-0.1-1.9,0.1-3.8,0-5.7
			c-0.1-1.5,0.5-1.8,1.8-1.8c1.8,0.1,3.6-0.1,5.3,0c1.4,0.1,1.8-0.5,1.7-1.8c-0.1-1.9,0-3.8,0-5.7c0-1.1,0.4-1.5,1.4-1.5
			c2,0,4,0,6,0c1.1,0,1.5-0.4,1.4-1.5c0-2,0-4,0-6c0-1,0.3-1.4,1.3-1.4c8.1,0,16.2,0,24.3,0c1,0,1.3,0.5,1.3,1.4c0,2,0,4,0,6
			c0,1.1,0.4,1.5,1.5,1.4c1.9,0,3.8,0.1,5.7,0c1.3-0.1,1.8,0.3,1.8,1.7c-0.1,1.9,0,3.9,0,5.9c0,1,0.4,1.4,1.4,1.4
			c1.9,0,3.8,0.1,5.7,0c1.5-0.1,1.9,0.5,1.9,1.9c-0.1,1.8,0,3.7,0,5.5c0,1,0.3,1.5,1.4,1.5c2-0.1,4,0,6,0c1.1,0,1.5,0.4,1.4,1.5
			c-0.1,1.9,0,3.8,0,5.7c-0.1,1.3,0.4,1.8,1.7,1.8c1.8-0.1,3.7,0.1,5.5,0c1.4-0.1,1.8,0.5,1.7,1.8c-0.1,1.8,0,3.7,0,5.5
			c0,1.2,0.4,1.7,1.6,1.7c1.9-0.1,3.9,0,5.9,0c1,0,1.4,0.4,1.4,1.4c0,2.8,0,5.7,0,8.5c0,1-0.5,1.3-1.4,1.3c-1.9,0-3.8,0.1-5.7,0
			c-1.3-0.1-1.8,0.4-1.8,1.7c0.1,1.8-0.1,3.7,0,5.5c0.1,1.4-0.5,1.7-1.8,1.7c-1.9-0.1-3.8,0-5.7,0c-1.1,0-1.5,0.4-1.5,1.5
			c0,1.8-0.1,3.6,0,5.3c0.1,1.7-0.5,2.2-2.2,2.1c-1.8-0.1-3.5,0-5.3,0c-1.1,0-1.5,0.4-1.4,1.5c0.1,2,0,4,0,6c0,1-0.4,1.4-1.4,1.3
			c-1.9-0.1-3.8,0.1-5.7,0c-1.5-0.1-1.9,0.5-1.9,1.9c0.1,1.8,0,3.5,0,5.3c0,1.2-0.3,1.7-1.6,1.6c-1.9-0.1-3.9,0-5.9,0
			c-1.1,0-1.5,0.4-1.4,1.5c0,1.8-0.1,3.7,0,5.5c0.1,1.6-0.5,2-2,1.9C4128.3,4225.9,4124.5,4226,4120.7,4226z M4094.2,4188.3
			c0.9,0,1.9,0.1,2.8,0c1.2-0.1,1.7,0.4,1.6,1.6c-0.1,1.9,0,3.8,0,5.7c0,1.1,0.3,1.6,1.5,1.6c2-0.1,4,0,6,0c1,0,1.4,0.4,1.3,1.3
			c0,2,0.1,3.9,0,5.9c-0.1,1.4,0.5,1.8,1.7,1.7c1.7-0.1,3.4,0.1,5.1,0c1.5-0.1,2.1,0.3,2,2c-0.1,1.8,0,3.7,0,5.5
			c0,1.1,0.4,1.5,1.4,1.5c1.9-0.1,3.8-0.1,5.7,0c1.1,0,1.5-0.4,1.4-1.5c0-1.8,0.1-3.6,0-5.3c-0.1-1.6,0.3-2.3,2-2.1
			c1.8,0.1,3.7,0,5.5,0c1,0,1.4-0.4,1.4-1.4c0-1.6,0-3.2,0-4.8c0-2.7,0-2.7,2.6-2.7c1.5,0,3.1-0.1,4.6,0c1.2,0.1,1.7-0.3,1.6-1.6
			c-0.1-1.4,0-2.8,0-4.3c0-3.4-0.4-2.9,3.1-3c1.4,0,2.8-0.1,4.3,0c1.2,0.1,1.6-0.3,1.5-1.5c-0.1-2,0-4,0-6c0-1,0.3-1.4,1.3-1.4
			c2,0,4,0,6,0c1,0,1.6-0.2,1.5-1.4c-0.1-1.3-0.1-2.6,0-3.9c0-1-0.4-1.4-1.3-1.4c-1.8,0-3.6-0.1-5.3,0c-1.9,0.2-2.4-0.6-2.2-2.3
			c0.1-1.4,0-2.8,0-4.3c0-2.3,0-2.3-2.4-2.3c-1.7,0-3.3,0-5,0c-1.1,0-1.6-0.3-1.6-1.5c0.1-1.9-0.1-3.8,0-5.7
			c0.1-1.4-0.5-1.8-1.8-1.7c-1.8,0.1-3.7,0-5.5,0c-1.2,0-1.7-0.3-1.7-1.6c0.1-1.9,0-3.9,0-5.9c0-1.1-0.4-1.5-1.5-1.4
			c-1.8,0.1-3.6-0.1-5.3,0c-1.6,0.1-2.3-0.3-2.1-2c0.1-1.8,0-3.7,0-5.5c0-1-0.3-1.4-1.3-1.4c-2,0-3.9,0-5.9,0c-1,0-1.4,0.4-1.3,1.4
			c0,1.9-0.1,3.8,0,5.7c0.1,1.3-0.3,1.9-1.8,1.9c-1.9-0.1-3.8,0-5.7,0c-1.1,0-1.5,0.4-1.4,1.5c0.1,1.8-0.1,3.7,0,5.5
			c0.1,1.6-0.5,2.1-2,2c-1.8-0.1-3.7,0-5.5,0c-1,0-1.4,0.4-1.4,1.3c0,1.6,0,3.2,0,4.8c0,3,0.3,2.7-2.8,2.7c-1.5,0-3,0.1-4.4,0
			c-1.2-0.1-1.7,0.3-1.7,1.6c0.1,1.9,0,3.8,0,5.7c0.1,1.3-0.5,1.7-1.7,1.6c-1.7-0.1-3.4,0.1-5.1,0c-1.6-0.1-2.1,0.4-2.1,2.1
			c0.1,4.5,0,4.5,4.6,4.5c4.3,0,4.3,0,4.3,4.4C4089.7,4188.3,4089.7,4188.3,4094.2,4188.3z"/>
		<path class="st1" d="M4085.1,4126c2.5,0,5.1,0,7.6,0c1,0,1.3,0.3,1.3,1.3c-0.1,2.9-0.1,5.8,0,8.7c0,1-0.3,1.2-1.2,1.2
			c-2.1-0.1-4.3,0-6.4,0c-1,0-1.3,0.3-1.3,1.3c0.1,2.1,0,4.1,0,6.2c0.1,1.1-0.4,1.4-1.4,1.4c-2-0.1-4,0.1-6,0
			c-1.2-0.1-1.5,0.4-1.5,1.5c0.1,1.8-0.1,3.7,0.1,5.5c0.2,1.7-0.5,2-2,1.9c-1.7-0.1-3.4,0.1-5.1-0.1c-1.3-0.1-1.9,0.2-1.8,1.7
			c0.1,1.9,0,3.8,0.1,5.7c0.1,1.1-0.3,1.6-1.5,1.5c-2-0.1-4,0-6,0c-1.1,0-1.5,0.3-1.4,1.4c0.1,2.1,0,4.1,0,6.2c0,1-0.3,1.3-1.3,1.3
			c-2.1-0.1-4.3,0-6.4,0c-0.9,0-1.3,0.2-1.2,1.2c0.1,1.7-0.5,3.9,0.3,5c0.9,1.2,3.2,0.4,4.9,0.4c3.7,0.1,3.7,0,3.7,3.7
			c0,1.6-0.5,3.8,0.3,4.8c1,1.1,3.2,0.3,4.9,0.4c3.7,0.1,3.7,0,3.7,3.7c0,1.6-0.5,3.8,0.3,4.8c1,1.1,3.2,0.3,4.9,0.4
			c3.7,0.1,3.7,0,3.7,3.7c0,1.6-0.5,3.8,0.3,4.8c1,1.1,3.2,0.3,4.9,0.4c3.7,0.1,3.6,0,3.7,3.7c0,1.6-0.5,3.8,0.3,4.8
			c1,1.1,3.2,0.3,4.9,0.3c3.6,0.1,3.7,0,3.7,3.7c0,2.1,0,4.1,0,6.2c0,0.9-0.3,1.2-1.2,1.2c-5.2,0-10.4,0-15.6,0
			c-1,0-1.3-0.4-1.3-1.3c0.1-1.9-0.1-3.8,0.1-5.7c0.1-1.7-0.5-2-2-1.9c-1.7,0.1-3.4,0-5.1,0.1c-1.3,0.1-1.9-0.2-1.8-1.7
			c0.1-1.9,0-3.9,0.1-5.8c0-1-0.3-1.3-1.3-1.3c-2.1,0.1-4.3,0-6.4,0c-0.9,0-1.2-0.3-1.2-1.2c0.1-2.1,0-4.3,0-6.4
			c0-1-0.3-1.3-1.3-1.3c-2.1,0.1-4.1,0-6.2,0c-1.1,0-1.4-0.3-1.4-1.4c0.1-2,0-4,0-6c0.1-1.2-0.4-1.5-1.5-1.5c-1.9,0.1-3.9-0.1-5.9,0
			c-1.3,0.1-1.6-0.4-1.6-1.6c0.1-1.9,0-3.8,0-5.7c0.1-1.2-0.2-1.7-1.5-1.6c-2,0.1-4,0-6,0c-1,0-1.4-0.2-1.3-1.3
			c0.1-2.9,0.1-5.8,0-8.7c0-0.9,0.3-1.2,1.2-1.2c2.1,0.1,4.3,0,6.4,0c1,0,1.3-0.3,1.3-1.3c-0.1-1.9,0.1-3.8-0.1-5.7
			c-0.2-1.7,0.5-2,2-1.9c1.8,0.1,3.7,0,5.5,0.1c1.2,0.1,1.5-0.4,1.4-1.5c-0.1-1.8,0.1-3.7-0.1-5.5c-0.2-1.7,0.5-2,2-1.9
			c1.6,0.1,3.2-0.1,4.8,0.1c1.6,0.1,2.3-0.3,2.2-2.1c-0.2-1.7,0-3.4-0.1-5.1c-0.1-1.3,0.2-1.8,1.6-1.7c1.9,0.1,3.9,0,5.8,0.1
			c1.1,0,1.5-0.3,1.4-1.4c-0.1-2.1,0-4.1,0-6.2c0-1,0.3-1.3,1.3-1.3c2.1,0.1,4.3,0,6.4,0c0.9,0,1.2-0.3,1.2-1.2
			c-0.1-1.8,0.1-3.7-0.1-5.5c-0.1-1.7,0.3-2.3,2.1-2.2C4080.4,4126.2,4082.8,4126,4085.1,4126z"/>
		<path class="st1" d="M4133.3,4176.5c-0.2,1.5,0.8,3.9-0.4,5c-1,0.9-3.4,0.3-5.1,0.3c-1.2,0-1.7,0.3-1.6,1.6c0.1,1.4,0,2.8,0,4.3
			c0,0.9-0.2,1.3-1.2,1.3c-3-0.1-5.9,0-8.9,0c-0.9,0-1.1-0.3-1.1-1.1c0.1-1.6,0-3.2,0-4.8c0-0.8-0.3-1.2-1.1-1.1c-1.5,0-3.1,0-4.6,0
			c-0.9,0-1.4-0.2-1.4-1.3c0.1-2.9,0.1-5.8,0-8.7c0-0.9,0.3-1.3,1.2-1.2c1.5,0.1,3-0.1,4.4,0c1.2,0.1,1.5-0.4,1.5-1.5
			c-0.1-1.5,0-3,0-4.4c0-1,0.3-1.2,1.2-1.2c2.9,0,5.8,0,8.7,0c0.9,0,1.3,0.3,1.2,1.2c-0.1,1.5,0,3.1,0,4.6c0,1,0.2,1.4,1.3,1.3
			c1.4-0.1,2.8,0.1,4.3,0c1.4-0.1,1.7,0.4,1.6,1.7C4133.2,4173.6,4133.3,4174.9,4133.3,4176.5z"/>
	</g>
</g>
<g id="Camada_1_00000074408152137790792400000003854857944120417983_">
	<text transform="matrix(1 0 0 1 4179.8955 4152.3521)" class="st0" style="font-family:'adelia'; font-size:20.3472px;">Artesanato em</text>
	<text transform="matrix(1 0 0 1 4181.2729 4216.2988)" class="st1 st4" style="font-size:75.1289px;">Foco</text>
	<g>
		<path class="st0" d="M4120.7,4226c-3.9,0-7.8-0.1-11.7,0c-1.5,0-2-0.5-1.9-1.9c0.1-1.8,0-3.5,0-5.3c0-1.2-0.4-1.7-1.6-1.7
			c-1.9,0.1-3.9,0-5.9,0c-1.1,0-1.5-0.4-1.4-1.5c0.1-1.8-0.1-3.7,0-5.5c0.1-1.6-0.5-2-2-1.9c-1.7,0.1-3.4-0.1-5.1,0.1
			c-1.4,0.1-1.7-0.5-1.7-1.7c0.1-1.8,0-3.7,0-5.5c0.1-1.3-0.4-1.6-1.6-1.6c-1.8,0.1-3.7-0.1-5.5,0c-1.4,0.1-1.8-0.5-1.8-1.8
			c0.1-1.7-0.1-3.4,0-5.1c0.1-1.5-0.6-1.9-2-1.9c-1.8,0.1-3.7,0-5.5,0c-1,0-1.5-0.3-1.4-1.4c0.1-1.9,0-3.9,0-5.9
			c0.1-1.3-0.5-1.6-1.7-1.6c-1.9,0.1-3.8,0-5.7,0c-1.1,0-1.6-0.3-1.6-1.5c0.1-2.8,0-5.6,0-8.3c0-1,0.4-1.4,1.3-1.4c2,0,4,0,6,0
			c1.2,0,1.6-0.4,1.5-1.5c-0.1-1.9,0.1-3.8,0-5.7c-0.1-1.4,0.5-1.7,1.7-1.7c1.8,0.1,3.6,0,5.3,0c1.3,0.1,1.9-0.3,1.8-1.8
			c-0.1-1.9,0-3.8,0-5.7c0-1.1,0.4-1.5,1.4-1.4c2,0.1,4,0,6,0c1.1,0,1.5-0.4,1.4-1.4c-0.1-1.9,0.1-3.8,0-5.7
			c-0.1-1.5,0.5-1.8,1.8-1.8c1.8,0.1,3.6-0.1,5.3,0c1.4,0.1,1.8-0.5,1.7-1.8c-0.1-1.9,0-3.8,0-5.7c0-1.1,0.4-1.5,1.4-1.5
			c2,0,4,0,6,0c1.1,0,1.5-0.4,1.4-1.5c0-2,0-4,0-6c0-1,0.3-1.4,1.3-1.4c8.1,0,16.2,0,24.3,0c1,0,1.3,0.5,1.3,1.4c0,2,0,4,0,6
			c0,1.1,0.4,1.5,1.5,1.4c1.9,0,3.8,0.1,5.7,0c1.3-0.1,1.8,0.3,1.8,1.7c-0.1,1.9,0,3.9,0,5.9c0,1,0.4,1.4,1.4,1.4
			c1.9,0,3.8,0.1,5.7,0c1.5-0.1,1.9,0.5,1.9,1.9c-0.1,1.8,0,3.7,0,5.5c0,1,0.3,1.5,1.4,1.5c2-0.1,4,0,6,0c1.1,0,1.5,0.4,1.4,1.5
			c-0.1,1.9,0,3.8,0,5.7c-0.1,1.3,0.4,1.8,1.7,1.8c1.8-0.1,3.7,0.1,5.5,0c1.4-0.1,1.8,0.5,1.7,1.8c-0.1,1.8,0,3.7,0,5.5
			c0,1.2,0.4,1.7,1.6,1.7c1.9-0.1,3.9,0,5.9,0c1,0,1.4,0.4,1.4,1.4c0,2.8,0,5.7,0,8.5c0,1-0.5,1.3-1.4,1.3c-1.9,0-3.8,0.1-5.7,0
			c-1.3-0.1-1.8,0.4-1.8,1.7c0.1,1.8-0.1,3.7,0,5.5c0.1,1.4-0.5,1.7-1.8,1.7c-1.9-0.1-3.8,0-5.7,0c-1.1,0-1.5,0.4-1.5,1.5
			c0,1.8-0.1,3.6,0,5.3c0.1,1.7-0.5,2.2-2.2,2.1c-1.8-0.1-3.5,0-5.3,0c-1.1,0-1.5,0.4-1.4,1.5c0.1,2,0,4,0,6c0,1-0.4,1.4-1.4,1.3
			c-1.9-0.1-3.8,0.1-5.7,0c-1.5-0.1-1.9,0.5-1.9,1.9c0.1,1.8,0,3.5,0,5.3c0,1.2-0.3,1.7-1.6,1.6c-1.9-0.1-3.9,0-5.9,0
			c-1.1,0-1.5,0.4-1.4,1.5c0,1.8-0.1,3.7,0,5.5c0.1,1.6-0.5,2-2,1.9C4128.3,4225.9,4124.5,4226,4120.7,4226z M4094.2,4188.3
			c0.9,0,1.9,0.1,2.8,0c1.2-0.1,1.7,0.4,1.6,1.6c-0.1,1.9,0,3.8,0,5.7c0,1.1,0.3,1.6,1.5,1.6c2-0.1,4,0,6,0c1,0,1.4,0.4,1.3,1.3
			c0,2,0.1,3.9,0,5.9c-0.1,1.4,0.5,1.8,1.7,1.7c1.7-0.1,3.4,0.1,5.1,0c1.5-0.1,2.1,0.3,2,2c-0.1,1.8,0,3.7,0,5.5
			c0,1.1,0.4,1.5,1.4,1.5c1.9-0.1,3.8-0.1,5.7,0c1.1,0,1.5-0.4,1.4-1.5c0-1.8,0.1-3.6,0-5.3c-0.1-1.6,0.3-2.3,2-2.1
			c1.8,0.1,3.7,0,5.5,0c1,0,1.4-0.4,1.4-1.4c0-1.6,0-3.2,0-4.8c0-2.7,0-2.7,2.6-2.7c1.5,0,3.1-0.1,4.6,0c1.2,0.1,1.7-0.3,1.6-1.6
			c-0.1-1.4,0-2.8,0-4.3c0-3.4-0.4-2.9,3.1-3c1.4,0,2.8-0.1,4.3,0c1.2,0.1,1.6-0.3,1.5-1.5c-0.1-2,0-4,0-6c0-1,0.3-1.4,1.3-1.4
			c2,0,4,0,6,0c1,0,1.6-0.2,1.5-1.4c-0.1-1.3-0.1-2.6,0-3.9c0-1-0.4-1.4-1.3-1.4c-1.8,0-3.6-0.1-5.3,0c-1.9,0.2-2.4-0.6-2.2-2.3
			c0.1-1.4,0-2.8,0-4.3c0-2.3,0-2.3-2.4-2.3c-1.7,0-3.3,0-5,0c-1.1,0-1.6-0.3-1.6-1.5c0.1-1.9-0.1-3.8,0-5.7
			c0.1-1.4-0.5-1.8-1.8-1.7c-1.8,0.1-3.7,0-5.5,0c-1.2,0-1.7-0.3-1.7-1.6c0.1-1.9,0-3.9,0-5.9c0-1.1-0.4-1.5-1.5-1.4
			c-1.8,0.1-3.6-0.1-5.3,0c-1.6,0.1-2.3-0.3-2.1-2c0.1-1.8,0-3.7,0-5.5c0-1-0.3-1.4-1.3-1.4c-2,0-3.9,0-5.9,0c-1,0-1.4,0.4-1.3,1.4
			c0,1.9-0.1,3.8,0,5.7c0.1,1.3-0.3,1.9-1.8,1.9c-1.9-0.1-3.8,0-5.7,0c-1.1,0-1.5,0.4-1.4,1.5c0.1,1.8-0.1,3.7,0,5.5
			c0.1,1.6-0.5,2.1-2,2c-1.8-0.1-3.7,0-5.5,0c-1,0-1.4,0.4-1.4,1.3c0,1.6,0,3.2,0,4.8c0,3,0.3,2.7-2.8,2.7c-1.5,0-3,0.1-4.4,0
			c-1.2-0.1-1.7,0.3-1.7,1.6c0.1,1.9,0,3.8,0,5.7c0.1,1.3-0.5,1.7-1.7,1.6c-1.7-0.1-3.4,0.1-5.1,0c-1.6-0.1-2.1,0.4-2.1,2.1
			c0.1,4.5,0,4.5,4.6,4.5c4.3,0,4.3,0,4.3,4.4C4089.7,4188.3,4089.7,4188.3,4094.2,4188.3z"/>
		<path class="st1" d="M4085.1,4126c2.5,0,5.1,0,7.6,0c1,0,1.3,0.3,1.3,1.3c-0.1,2.9-0.1,5.8,0,8.7c0,1-0.3,1.2-1.2,1.2
			c-2.1-0.1-4.3,0-6.4,0c-1,0-1.3,0.3-1.3,1.3c0.1,2.1,0,4.1,0,6.2c0.1,1.1-0.4,1.4-1.4,1.4c-2-0.1-4,0.1-6,0
			c-1.2-0.1-1.5,0.4-1.5,1.5c0.1,1.8-0.1,3.7,0.1,5.5c0.2,1.7-0.5,2-2,1.9c-1.7-0.1-3.4,0.1-5.1-0.1c-1.3-0.1-1.9,0.2-1.8,1.7
			c0.1,1.9,0,3.8,0.1,5.7c0.1,1.1-0.3,1.6-1.5,1.5c-2-0.1-4,0-6,0c-1.1,0-1.5,0.3-1.4,1.4c0.1,2.1,0,4.1,0,6.2c0,1-0.3,1.3-1.3,1.3
			c-2.1-0.1-4.3,0-6.4,0c-0.9,0-1.3,0.2-1.2,1.2c0.1,1.7-0.5,3.9,0.3,5c0.9,1.2,3.2,0.4,4.9,0.4c3.7,0.1,3.7,0,3.7,3.7
			c0,1.6-0.5,3.8,0.3,4.8c1,1.1,3.2,0.3,4.9,0.4c3.7,0.1,3.7,0,3.7,3.7c0,1.6-0.5,3.8,0.3,4.8c1,1.1,3.2,0.3,4.9,0.4
			c3.7,0.1,3.7,0,3.7,3.7c0,1.6-0.5,3.8,0.3,4.8c1,1.1,3.2,0.3,4.9,0.4c3.7,0.1,3.6,0,3.7,3.7c0,1.6-0.5,3.8,0.3,4.8
			c1,1.1,3.2,0.3,4.9,0.3c3.6,0.1,3.7,0,3.7,3.7c0,2.1,0,4.1,0,6.2c0,0.9-0.3,1.2-1.2,1.2c-5.2,0-10.4,0-15.6,0
			c-1,0-1.3-0.4-1.3-1.3c0.1-1.9-0.1-3.8,0.1-5.7c0.1-1.7-0.5-2-2-1.9c-1.7,0.1-3.4,0-5.1,0.1c-1.3,0.1-1.9-0.2-1.8-1.7
			c0.1-1.9,0-3.9,0.1-5.8c0-1-0.3-1.3-1.3-1.3c-2.1,0.1-4.3,0-6.4,0c-0.9,0-1.2-0.3-1.2-1.2c0.1-2.1,0-4.3,0-6.4
			c0-1-0.3-1.3-1.3-1.3c-2.1,0.1-4.1,0-6.2,0c-1.1,0-1.4-0.3-1.4-1.4c0.1-2,0-4,0-6c0.1-1.2-0.4-1.5-1.5-1.5c-1.9,0.1-3.9-0.1-5.9,0
			c-1.3,0.1-1.6-0.4-1.6-1.6c0.1-1.9,0-3.8,0-5.7c0.1-1.2-0.2-1.7-1.5-1.6c-2,0.1-4,0-6,0c-1,0-1.4-0.2-1.3-1.3
			c0.1-2.9,0.1-5.8,0-8.7c0-0.9,0.3-1.2,1.2-1.2c2.1,0.1,4.3,0,6.4,0c1,0,1.3-0.3,1.3-1.3c-0.1-1.9,0.1-3.8-0.1-5.7
			c-0.2-1.7,0.5-2,2-1.9c1.8,0.1,3.7,0,5.5,0.1c1.2,0.1,1.5-0.4,1.4-1.5c-0.1-1.8,0.1-3.7-0.1-5.5c-0.2-1.7,0.5-2,2-1.9
			c1.6,0.1,3.2-0.1,4.8,0.1c1.6,0.1,2.3-0.3,2.2-2.1c-0.2-1.7,0-3.4-0.1-5.1c-0.1-1.3,0.2-1.8,1.6-1.7c1.9,0.1,3.9,0,5.8,0.1
			c1.1,0,1.5-0.3,1.4-1.4c-0.1-2.1,0-4.1,0-6.2c0-1,0.3-1.3,1.3-1.3c2.1,0.1,4.3,0,6.4,0c0.9,0,1.2-0.3,1.2-1.2
			c-0.1-1.8,0.1-3.7-0.1-5.5c-0.1-1.7,0.3-2.3,2.1-2.2C4080.4,4126.2,4082.8,4126,4085.1,4126z"/>
		<path class="st1" d="M4133.3,4176.5c-0.2,1.5,0.8,3.9-0.4,5c-1,0.9-3.4,0.3-5.1,0.3c-1.2,0-1.7,0.3-1.6,1.6c0.1,1.4,0,2.8,0,4.3
			c0,0.9-0.2,1.3-1.2,1.3c-3-0.1-5.9,0-8.9,0c-0.9,0-1.1-0.3-1.1-1.1c0.1-1.6,0-3.2,0-4.8c0-0.8-0.3-1.2-1.1-1.1c-1.5,0-3.1,0-4.6,0
			c-0.9,0-1.4-0.2-1.4-1.3c0.1-2.9,0.1-5.8,0-8.7c0-0.9,0.3-1.3,1.2-1.2c1.5,0.1,3-0.1,4.4,0c1.2,0.1,1.5-0.4,1.5-1.5
			c-0.1-1.5,0-3,0-4.4c0-1,0.3-1.2,1.2-1.2c2.9,0,5.8,0,8.7,0c0.9,0,1.3,0.3,1.2,1.2c-0.1,1.5,0,3.1,0,4.6c0,1,0.2,1.4,1.3,1.3
			c1.4-0.1,2.8,0.1,4.3,0c1.4-0.1,1.7,0.4,1.6,1.7C4133.2,4173.6,4133.3,4174.9,4133.3,4176.5z"/>
	</g>
</g>
<text transform="matrix(1.0039 0 0 1 130.3516 62.8193)" class="st0 st2 st3">Artesanato em</text>
<text transform="matrix(1.0039 0 0 1 128.2144 150.6143)" class="st1 st4 st5">FOCO</text>
<g>
	<path class="st0" d="M77.9,150.1c-3,0-6-0.1-9,0c-1.2,0-1.5-0.4-1.5-1.5c0.1-1.4,0-2.7,0-4.1c0-0.9-0.3-1.3-1.2-1.3
		c-1.5,0.1-3,0-4.6,0c-0.9,0-1.2-0.3-1.1-1.2c0.1-1.4-0.1-2.9,0-4.2c0.1-1.2-0.4-1.5-1.5-1.5c-1.3,0.1-2.6-0.1-3.9,0.1
		c-1.1,0.1-1.3-0.4-1.3-1.3c0.1-1.4,0-2.9,0-4.2c0.1-1-0.3-1.2-1.2-1.2c-1.4,0.1-2.9-0.1-4.3,0c-1.1,0.1-1.4-0.4-1.4-1.4
		c0.1-1.3-0.1-2.6,0-3.9c0.1-1.2-0.5-1.5-1.5-1.5c-1.4,0.1-2.9,0-4.3,0c-0.8,0-1.2-0.2-1.1-1.1c0.1-1.5,0-3,0-4.5
		c0.1-1-0.4-1.2-1.3-1.2c-1.5,0.1-2.9,0-4.4,0c-0.9,0-1.2-0.2-1.2-1.2c0.1-2.2,0-4.3,0-6.4c0-0.8,0.3-1.1,1-1.1c1.5,0,3.1,0,4.6,0
		c0.9,0,1.2-0.3,1.2-1.2c-0.1-1.5,0.1-2.9,0-4.4c-0.1-1.1,0.4-1.3,1.3-1.3c1.4,0.1,2.8,0,4.1,0c1,0.1,1.5-0.2,1.4-1.4
		c-0.1-1.5,0-2.9,0-4.4c0-0.8,0.3-1.2,1.1-1.1c1.5,0.1,3.1,0,4.6,0c0.9,0,1.2-0.3,1.1-1.1c-0.1-1.5,0.1-2.9,0-4.4
		c-0.1-1.2,0.4-1.4,1.4-1.4c1.4,0.1,2.8-0.1,4.1,0c1.1,0.1,1.4-0.4,1.3-1.4c-0.1-1.5,0-2.9,0-4.4c0-0.8,0.3-1.2,1.1-1.2
		c1.5,0,3.1,0,4.6,0c0.9,0,1.2-0.3,1.1-1.2c0-1.5,0-3.1,0-4.6c0-0.8,0.2-1.1,1-1.1c6.3,0,12.5,0,18.8,0c0.8,0,1,0.4,1,1.1
		c0,1.5,0,3.1,0,4.6c0,0.8,0.3,1.2,1.2,1.1c1.5,0,2.9,0.1,4.4,0c1-0.1,1.4,0.2,1.4,1.3c-0.1,1.5,0,3,0,4.5c0,0.8,0.3,1.1,1.1,1.1
		c1.5,0,2.9,0.1,4.4,0c1.2-0.1,1.5,0.4,1.5,1.5c-0.1,1.4,0,2.9,0,4.2c0,0.8,0.2,1.2,1.1,1.2c1.5-0.1,3.1,0,4.6,0
		c0.9,0,1.2,0.3,1.1,1.2c-0.1,1.5,0,2.9,0,4.4c-0.1,1,0.3,1.4,1.3,1.4c1.4-0.1,2.9,0.1,4.3,0c1.1-0.1,1.4,0.4,1.3,1.4
		c-0.1,1.4,0,2.9,0,4.2c0,0.9,0.3,1.3,1.2,1.3c1.5-0.1,3,0,4.6,0c0.8,0,1.1,0.3,1.1,1.1c0,2.2,0,4.4,0,6.5c0,0.8-0.4,1-1.1,1
		c-1.5,0-2.9,0.1-4.4,0c-1-0.1-1.4,0.3-1.4,1.3c0.1,1.4-0.1,2.9,0,4.2c0.1,1.1-0.4,1.3-1.4,1.3c-1.5-0.1-2.9,0-4.4,0
		c-0.9,0-1.2,0.3-1.2,1.2c0,1.4-0.1,2.8,0,4.1c0.1,1.3-0.4,1.7-1.7,1.6c-1.4-0.1-2.7,0-4.1,0c-0.9,0-1.2,0.3-1.1,1.2
		c0.1,1.5,0,3.1,0,4.6c0,0.8-0.3,1.1-1.1,1c-1.5-0.1-2.9,0.1-4.4,0c-1.2-0.1-1.5,0.4-1.5,1.5c0.1,1.4,0,2.7,0,4.1
		c0,0.9-0.2,1.3-1.2,1.2c-1.5-0.1-3,0-4.6,0c-0.9,0-1.2,0.3-1.1,1.2c0,1.4-0.1,2.9,0,4.2c0.1,1.2-0.4,1.5-1.5,1.5
		C83.8,150,80.8,150.1,77.9,150.1z M57.4,121c0.7,0,1.5,0.1,2.2,0c0.9-0.1,1.3,0.3,1.2,1.2c-0.1,1.5,0,2.9,0,4.4
		c0,0.8,0.2,1.2,1.2,1.2c1.5-0.1,3.1,0,4.6,0c0.8,0,1.1,0.3,1,1c0,1.5,0.1,3,0,4.5c-0.1,1.1,0.4,1.4,1.3,1.3c1.3-0.1,2.6,0.1,3.9,0
		c1.2-0.1,1.6,0.2,1.5,1.5c-0.1,1.4,0,2.9,0,4.2c0,0.8,0.3,1.2,1.1,1.2c1.5-0.1,2.9-0.1,4.4,0c0.9,0,1.2-0.3,1.1-1.2
		c0-1.4,0.1-2.8,0-4.1c-0.1-1.2,0.2-1.8,1.5-1.6c1.4,0.1,2.9,0,4.3,0c0.8,0,1.1-0.3,1.1-1.1c0-1.2,0-2.5,0-3.7c0-2.1,0-2.1,2-2.1
		c1.2,0,2.4-0.1,3.6,0c0.9,0.1,1.3-0.2,1.2-1.2c-0.1-1.1,0-2.2,0-3.3c0-2.6-0.3-2.2,2.4-2.3c1.1,0,2.2-0.1,3.3,0
		c0.9,0.1,1.2-0.2,1.2-1.2c-0.1-1.5,0-3.1,0-4.6c0-0.8,0.2-1.1,1-1.1c1.5,0,3.1,0,4.6,0c0.8,0,1.2-0.2,1.2-1.1c-0.1-1-0.1-2,0-3
		c0-0.8-0.3-1.1-1-1.1c-1.4,0-2.8-0.1-4.1,0c-1.5,0.2-1.9-0.5-1.7-1.8c0.1-1.1,0-2.2,0-3.3c0-1.8,0-1.8-1.9-1.8c-1.3,0-2.6,0-3.9,0
		c-0.9,0-1.2-0.2-1.2-1.2c0.1-1.5-0.1-2.9,0-4.4c0.1-1.1-0.4-1.4-1.4-1.3c-1.4,0.1-2.9,0-4.3,0c-0.9,0-1.3-0.2-1.3-1.2
		c0.1-1.5,0-3,0-4.5c0-0.8-0.3-1.2-1.2-1.1c-1.4,0.1-2.8-0.1-4.1,0c-1.2,0.1-1.8-0.2-1.6-1.5c0.1-1.4,0-2.9,0-4.2
		c0-0.8-0.2-1.1-1-1.1c-1.5,0-3,0-4.6,0c-0.8,0-1.1,0.3-1,1.1c0,1.5-0.1,2.9,0,4.4c0.1,1-0.2,1.5-1.4,1.5c-1.5-0.1-2.9,0-4.4,0
		c-0.9,0-1.2,0.3-1.1,1.2c0.1,1.4-0.1,2.9,0,4.2c0.1,1.2-0.4,1.6-1.5,1.5c-1.4-0.1-2.9,0-4.3,0c-0.8,0-1.1,0.3-1.1,1
		c0,1.2,0,2.5,0,3.7c0,2.3,0.2,2.1-2.2,2.1c-1.2,0-2.3,0.1-3.4,0c-0.9-0.1-1.3,0.2-1.3,1.2c0.1,1.5,0,2.9,0,4.4
		c0.1,1-0.4,1.3-1.3,1.2c-1.3-0.1-2.6,0.1-3.9,0c-1.2-0.1-1.6,0.3-1.6,1.6c0.1,3.5,0,3.5,3.6,3.5c3.3,0,3.3,0,3.3,3.4
		C53.9,121,53.9,121,57.4,121z"/>
	<path class="st1" d="M50.4,73c1.9,0,3.9,0,5.9,0c0.8,0,1,0.2,1,1c-0.1,2.2-0.1,4.5,0,6.7c0,0.8-0.2,0.9-0.9,0.9c-1.6-0.1-3.3,0-5,0
		c-0.8,0-1,0.2-1,1c0.1,1.6,0,3.2,0,4.8c0.1,0.8-0.3,1.1-1.1,1.1c-1.5-0.1-3.1,0.1-4.6,0c-0.9-0.1-1.2,0.3-1.2,1.2
		c0.1,1.4-0.1,2.9,0.1,4.2c0.2,1.3-0.4,1.5-1.5,1.5c-1.3-0.1-2.6,0.1-3.9-0.1c-1-0.1-1.5,0.2-1.4,1.3c0.1,1.5,0,2.9,0.1,4.4
		c0.1,0.8-0.2,1.2-1.2,1.2c-1.5-0.1-3.1,0-4.6,0c-0.9,0-1.2,0.2-1.1,1.1c0.1,1.6,0,3.2,0,4.8c0,0.8-0.2,1-1,1c-1.6-0.1-3.3,0-5,0
		c-0.7,0-1,0.2-0.9,0.9c0.1,1.3-0.4,3,0.2,3.9c0.7,0.9,2.5,0.3,3.8,0.3c2.9,0.1,2.9,0,2.9,2.9c0,1.2-0.4,2.9,0.2,3.7
		c0.8,0.8,2.5,0.2,3.8,0.3c2.9,0.1,2.9,0,2.9,2.9c0,1.2-0.4,2.9,0.2,3.7c0.8,0.8,2.5,0.2,3.8,0.3c2.9,0.1,2.9,0,2.9,2.9
		c0,1.2-0.4,2.9,0.2,3.7c0.8,0.8,2.5,0.2,3.8,0.3c2.9,0.1,2.8,0,2.9,2.9c0,1.2-0.4,2.9,0.2,3.7c0.8,0.8,2.5,0.2,3.8,0.2
		c2.8,0.1,2.9,0,2.9,2.9c0,1.6,0,3.2,0,4.8c0,0.7-0.2,0.9-0.9,0.9c-4,0-8,0-12.1,0c-0.8,0-1-0.3-1-1c0.1-1.5-0.1-2.9,0.1-4.4
		c0.1-1.3-0.4-1.5-1.5-1.5c-1.3,0.1-2.6,0-3.9,0.1c-1,0.1-1.5-0.2-1.4-1.3c0.1-1.5,0-3,0.1-4.5c0-0.8-0.2-1-1-1c-1.6,0.1-3.3,0-5,0
		c-0.7,0-0.9-0.2-0.9-0.9c0.1-1.6,0-3.3,0-4.9c0-0.8-0.2-1-1-1c-1.6,0.1-3.2,0-4.8,0c-0.9,0-1.1-0.2-1.1-1.1c0.1-1.5,0-3.1,0-4.6
		c0.1-0.9-0.3-1.2-1.2-1.2c-1.5,0.1-3-0.1-4.6,0c-1,0.1-1.2-0.3-1.2-1.2c0.1-1.5,0-2.9,0-4.4c0.1-0.9-0.2-1.3-1.2-1.2
		c-1.5,0.1-3.1,0-4.6,0c-0.8,0-1.1-0.2-1-1c0.1-2.2,0.1-4.5,0-6.7c0-0.7,0.2-0.9,0.9-0.9c1.6,0.1,3.3,0,5,0c0.8,0,1-0.2,1-1
		c-0.1-1.5,0.1-2.9-0.1-4.4c-0.2-1.3,0.4-1.5,1.5-1.5c1.4,0.1,2.9,0,4.3,0.1c0.9,0.1,1.2-0.3,1.1-1.2c-0.1-1.4,0.1-2.9-0.1-4.2
		c-0.2-1.3,0.4-1.5,1.5-1.5c1.2,0.1,2.5-0.1,3.7,0.1c1.2,0.1,1.8-0.2,1.7-1.6c-0.2-1.3,0-2.6-0.1-3.9c-0.1-1,0.2-1.4,1.2-1.3
		c1.5,0.1,3,0,4.5,0.1c0.9,0,1.2-0.2,1.1-1.1c-0.1-1.6,0-3.2,0-4.8c0-0.8,0.2-1,1-1c1.6,0.1,3.3,0,5,0c0.7,0,0.9-0.2,0.9-0.9
		c-0.1-1.4,0.1-2.9-0.1-4.2c-0.1-1.3,0.2-1.8,1.6-1.7C46.7,73.2,48.6,73,50.4,73z"/>
	<path class="st1" d="M87.6,111.9c-0.2,1.2,0.6,3-0.3,3.9c-0.8,0.7-2.6,0.2-3.9,0.2c-0.9,0-1.3,0.2-1.2,1.2c0.1,1.1,0,2.2,0,3.3
		c0,0.7-0.2,1-0.9,1c-2.3-0.1-4.6,0-6.9,0c-0.7,0-0.9-0.2-0.9-0.8c0.1-1.2,0-2.5,0-3.7c0-0.6-0.2-0.9-0.9-0.8c-1.2,0-2.4,0-3.6,0
		c-0.7,0-1.1-0.2-1.1-1c0.1-2.2,0.1-4.5,0-6.7c0-0.7,0.2-1,0.9-0.9c1.2,0.1,2.3-0.1,3.4,0c0.9,0.1,1.2-0.3,1.2-1.2
		c-0.1-1.2,0-2.3,0-3.4c0-0.8,0.2-0.9,0.9-0.9c2.2,0,4.5,0,6.7,0c0.7,0,1,0.2,0.9,0.9c-0.1,1.2,0,2.4,0,3.5c0,0.8,0.2,1.1,1,1
		c1.1-0.1,2.2,0.1,3.3,0c1.1-0.1,1.3,0.3,1.2,1.3C87.6,109.7,87.6,110.7,87.6,111.9z"/>
</g>
</svg>
